<?xml version="1.0" encoding="utf-8"?>
<!-- Generator: Adobe Illustrator 25.4.1, SVG Export Plug-In . SVG Version: 6.00 Build 0)  -->
<svg version="1.1" id="Layer_1" xmlns="http://www.w3.org/2000/svg" xmlns:xlink="http://www.w3.org/1999/xlink" x="0px" y="0px"
	 viewBox="1270 380 520 180" style="enable-background:new 1270 380 520 180;" xml:space="preserve">
<style type="text/css">
	.st0{fill:#F97316;}
</style>
<path class="st0" d="M1367.1,411.5v117.3c0,2.7-1.8,5.1-4.3,5.9l-56.8,23V551c0-2.1,1.4-4,3.4-4.7l47.9-20.3l-6.2-2.6
	c-2.2-0.9-3.6-3.1-3.6-5.5V396.7l14.9,7.3C1365.3,405.4,1367.1,408.3,1367.1,411.5z"/>
<path class="st0" d="M1282.8,542.9V425.6c0-2.7,1.8-5.1,4.3-5.9l56.8-23v6.6c0,2.1-1.4,4-3.4,4.7l-47.9,20.3l6.2,2.6
	c2.2,0.9,3.6,3.1,3.6,5.5v121.3l-14.9-7.3C1284.6,549,1282.8,546.1,1282.8,542.9z"/>
<g>
	<path class="st0" d="M1435,479.7c-0.4,0.2-0.8,0.2-1.2,0.2c-1.1,0-1.9-0.4-2.5-1.2c-0.6-0.8-1.2-2.1-1.6-4.1l-1.1-4.6
		c-0.6-2.9-1.8-5.2-3.4-6.9c-1.7-1.7-4-2.9-7.1-3.6c-2.1-0.5-4.7-0.8-7.7-1c3.3-0.2,6.2-0.6,8.7-1.4c3.3-1,5.8-2.4,7.5-4.4
		c1.7-1.9,2.5-4.3,2.5-7.1c0-4.1-1.7-7.2-5.1-9.1c-3.4-1.9-8.6-2.9-15.7-2.9c-0.8,0-1.8,0-3,0.1c-1.2,0-2.5,0.1-3.9,0.1
		c-1.4,0-3,0-4.7,0h-1c-1.6,0-3.1,0-4.6,0c-1.5,0-2.8-0.1-3.9-0.1c-1.1,0-2.1-0.1-3-0.1v0.8l1.4,0.1c1.1,0.1,2,0.4,2.6,0.8
		c0.6,0.4,1,0.9,1.2,1.7c0.2,0.8,0.3,1.9,0.3,3.3V470h-0.1l0.1,5.7c0,1.4-0.1,2.5-0.3,3.3c-0.2,0.8-0.6,1.3-1.2,1.7
		c-0.6,0.3-1.4,0.6-2.6,0.8l-1.4,0.1v0.8c0.8,0,1.8-0.1,2.9-0.1c1.2,0,2.5,0,3.9-0.1c1.4,0,3,0,4.6,0h1.2h0.9c1.6,0,3.1,0,4.5,0
		c1.4,0,2.6,0,3.8,0.1c1.1,0,2.1,0.1,2.8,0.1v-0.8l-1.2-0.1c-1.7-0.2-2.7-0.7-3.2-1.4c-0.5-0.7-0.7-2.2-0.7-4.3l-0.1-5.7h0.1v-11
		h3.1c1.5,0,2.6,0.2,3.5,0.7c0.9,0.4,1.6,1.2,2.1,2.2c0.5,1.1,0.9,2.5,1.2,4.5l1.2,6.8c0.6,3.8,1.8,6.5,3.5,7.9
		c1.7,1.5,4.4,2.2,8.1,2.2c2.2,0,4.1-0.3,5.6-0.9c1.6-0.6,3-1.5,4.3-2.8l-0.3-0.6C1435.7,479.3,1435.4,479.5,1435,479.7z
		 M1407.2,434.6c3.2,0,5.4,0.9,6.8,2.8c1.4,1.9,2.1,4.7,2.1,8.6c0,4.2-0.8,7.3-2.4,9.3c-1.6,2-4,3-7.4,3h-2.5v-23.7H1407.2z"/>
	<path class="st0" d="M1476.1,480.3c-0.5-0.7-0.8-2-0.8-3.8v-12v-17.9v-0.8c-1.7,0.3-3.3,0.6-4.9,0.7c-1.6,0.2-3.3,0.2-5,0.2
		c-1.1,0-2.2,0-3.2,0c-1,0-2.2-0.1-3.6-0.2v0.8l0.7,0.1c1.4,0.2,2.4,0.6,2.9,1.3c0.5,0.7,0.8,2,0.8,3.8v12V477
		c-0.4,0.6-0.8,1-1.3,1.4c-1.4,1.2-2.8,1.8-4.4,1.8c-1.5,0-2.6-0.5-3.3-1.4c-0.7-0.9-1.1-2.4-1.1-4.4v-10v-17.9v-0.8
		c-1.7,0.3-3.3,0.6-4.9,0.7c-1.6,0.2-3.3,0.2-5.1,0.2c-1.1,0-2.2,0-3.3,0c-1,0-2.2-0.1-3.6-0.2v0.8l0.8,0.1c1.5,0.2,2.5,0.6,3,1.3
		c0.5,0.7,0.8,2,0.8,3.8v12v7.2c0,3.9,0.9,6.7,2.8,8.7c1.8,1.9,4.6,2.9,8.3,2.9c3.3,0,6.2-0.8,8.5-2.5c1.1-0.8,2.1-1.8,2.9-3v4.6
		v0.8c1.7-0.4,3.3-0.6,4.9-0.8c1.6-0.1,3.3-0.2,5.1-0.2c1.2,0,2.3,0,3.3,0c1,0,2.2,0.1,3.6,0.2v-0.8l-0.8-0.1
		C1477.6,481.4,1476.6,481,1476.1,480.3z"/>
	<path class="st0" d="M1519.8,481c-0.4,0.2-0.9,0.3-1.3,0.3c-0.6,0-0.9-0.2-1.2-0.6c-0.2-0.4-0.3-1.1-0.3-2.1v-14v-3.4
		c0-5.6-1.1-9.6-3.4-11.9c-2.2-2.3-6.1-3.5-11.5-3.5c-3.3,0-6.3,0.4-8.7,1.1c-2.5,0.8-4.4,1.8-5.7,3.2c-1.4,1.4-2,3-2,4.9
		c0,1.7,0.5,3,1.5,3.9c1,1,2.5,1.4,4.4,1.4c1.7,0,3.1-0.4,4.2-1.1c1.1-0.8,1.6-1.8,1.6-3c0-1-0.3-1.9-0.8-2.7
		c-0.6-0.8-1.1-1.5-1.7-2.2c-0.6-0.7-0.9-1.4-0.9-2.1c0-0.7,0.4-1.3,1.2-1.8c0.8-0.4,1.9-0.7,3.4-0.7c2.1,0,3.6,0.7,4.6,2
		c0.9,1.3,1.4,3.5,1.4,6.6v4.2c-0.2,0.8-0.7,1.6-1.5,2.1c-1,0.7-2.3,1.3-3.9,1.8c-1.6,0.5-3.3,1-5,1.5c-1.8,0.5-3.4,1.2-5,2
		c-1.6,0.8-2.9,1.8-3.9,3.1c-1,1.3-1.5,2.9-1.5,5c0,2.5,0.9,4.5,2.7,6.1c1.8,1.5,4.2,2.3,7.3,2.3c2.4,0,4.5-0.5,6.4-1.4
		c1.8-0.9,3.3-2.2,4.5-3.9c0.1,1.7,0.8,2.9,2,3.8c1.3,1,3.3,1.4,6,1.4c1.9,0,3.6-0.2,5.2-0.7c1.5-0.5,2.8-1.1,3.9-1.9l-0.3-0.7
		C1520.7,480.5,1520.3,480.8,1519.8,481z M1503.2,478.5c-0.6,0.3-1.3,0.4-2,0.4c-1.5,0-2.6-0.5-3.4-1.4c-0.8-1-1.2-2.3-1.2-4.1
		c0-1.6,0.3-2.9,0.8-3.9c0.5-1.1,1.1-2,1.9-2.8c0.8-0.8,1.5-1.5,2.3-2.1c0.8-0.6,1.4-1.3,2-2c0.5-0.5,0.8-1.1,1-1.7v3.7v12.8
		C1504.2,477.8,1503.7,478.2,1503.2,478.5z"/>
	<path class="st0" d="M1565.1,480.3c-0.5-0.7-0.8-1.9-0.8-3.6v-12.2v-7.2c0-3.9-1-6.8-2.9-8.7c-1.9-1.9-4.8-2.9-8.6-2.9
		c-3.3,0-6.2,0.8-8.5,2.4c-1.1,0.8-2.2,1.8-3.1,3.1v-4.5v-0.8c-1.7,0.3-3.3,0.6-4.9,0.7c-1.6,0.2-3.3,0.2-5.1,0.2
		c-1.1,0-2.2,0-3.3,0c-1,0-2.2-0.1-3.6-0.2v0.8l0.8,0.1c1.5,0.2,2.5,0.6,3,1.3c0.5,0.7,0.8,2,0.8,3.8v11.9v12.2
		c0,1.7-0.3,2.9-0.8,3.6c-0.5,0.7-1.5,1.1-2.9,1.3l-0.8,0.1v0.8c2.4-0.1,4.4-0.1,5.9-0.2c1.6,0,3.1,0,4.7,0c1.6,0,3.2,0,4.6,0
		c1.5,0,3.4,0.1,5.7,0.2v-0.8l-0.7-0.1c-1.3-0.1-2.2-0.6-2.7-1.3c-0.5-0.7-0.8-1.9-0.8-3.6v-12.2v-12.4c0.5-0.6,0.9-1.2,1.4-1.6
		c1.3-1.2,2.8-1.8,4.4-1.8c1.7,0,2.9,0.5,3.6,1.4c0.8,0.9,1.1,2.4,1.1,4.4v9.9v12.2c0,1.7-0.3,2.9-0.8,3.6c-0.5,0.7-1.4,1.1-2.7,1.3
		l-0.7,0.1v0.8c2.3-0.1,4.2-0.1,5.7-0.2c1.5,0,3.1,0,4.6,0c1.7,0,3.2,0,4.8,0c1.5,0,3.5,0.1,5.9,0.2v-0.8l-0.9-0.1
		C1566.5,481.5,1565.6,481,1565.1,480.3z"/>
	<path class="st0" d="M1607.1,445.7c-1.9,0-3.6,0.6-5.3,1.7c-0.8,0.6-1.5,1.2-2.1,1.9c-0.3-0.3-0.6-0.5-0.9-0.8
		c-2.6-1.9-6.2-2.9-10.9-2.9c-4.8,0-8.5,1-11.2,2.9c-2.7,2-4.1,4.6-4.1,8.1c0,3.4,1.4,6.1,4.1,8.1c1.7,1.2,3.8,2,6.2,2.5
		c-2.7,1.4-4.7,2.9-6,4.4c-1.3,1.5-1.9,3.2-1.9,5c0,2.1,0.9,3.8,2.7,5c0.7,0.5,1.4,0.8,2.3,1.1c-3.2,0.9-5.7,2-7.5,3.4
		c-1.9,1.5-2.8,3.1-2.8,5c0,2.3,1.4,4.1,4.3,5.5c2.8,1.4,6.7,2.1,11.7,2.1c4.6,0,8.7-0.6,12.1-1.9c3.4-1.3,6.1-3,7.9-5.3
		c1.9-2.3,2.8-4.9,2.8-8c0-3.3-1.1-5.8-3.4-7.6c-2.3-1.7-5.6-2.6-10-2.6h-7.9c-1.7,0-2.9-0.3-3.8-0.8c-0.9-0.5-1.3-1.3-1.3-2.3
		c0-0.5,0.1-1,0.3-1.5c0.2-0.5,0.6-1,1.2-1.4c1.3,0.2,2.7,0.3,4.2,0.3c4.6,0,8.3-1,10.9-2.9c2.6-1.9,3.9-4.6,3.9-8.1
		c0-2.8-0.9-5.1-2.5-6.9c0,0,0-0.1,0.1-0.1c0.6-0.7,1.2-1.2,1.8-1.5c0.6-0.3,1-0.5,1.4-0.5c0.5,0,0.9,0.4,1.2,1.1
		c0.3,0.7,0.6,1.5,0.9,2.4c0.3,0.9,0.7,1.7,1.2,2.5c0.5,0.7,1.3,1.1,2.2,1.1c1,0,1.7-0.4,2.3-1.2c0.6-0.8,0.9-1.8,0.9-3
		c0-1.5-0.4-2.7-1.3-3.5C1609.9,446.2,1608.6,445.7,1607.1,445.7z M1585,483.5h6.5c2.4,0,4.3,0.5,5.5,1.4c1.3,0.9,1.9,2.2,1.9,4
		c0,1.8-0.5,3.4-1.4,4.7c-0.9,1.4-2.2,2.5-3.9,3.2c-1.7,0.8-3.6,1.2-5.8,1.2c-2.9,0-5.2-0.7-6.8-2.2c-1.6-1.5-2.4-3.6-2.4-6.4
		c0-1.3,0.2-2.6,0.6-3.7c0.3-1,0.8-2,1.4-2.8C1582,483.3,1583.4,483.5,1585,483.5z M1591.1,464.5c-0.8,1.7-1.9,2.5-3.3,2.5
		c-1.3,0-2.3-0.8-3.1-2.5c-0.8-1.7-1.2-4.2-1.2-7.8c0-3.5,0.4-6.1,1.2-7.8c0.8-1.7,1.9-2.5,3.2-2.5c1.3,0,2.4,0.8,3.2,2.5
		c0.8,1.7,1.2,4.2,1.2,7.8C1592.3,460.3,1591.9,462.9,1591.1,464.5z"/>
	<path class="st0" d="M1666.2,446.8c-1.1,0-2.1,0-3.1-0.1c-1,0-2.2-0.1-3.9-0.1v0.8l0.6,0.1c2.2,0.4,3.4,1.9,3.5,4.5
		c0.1,2.6-0.8,6.1-2.7,10.6l-2.3,5.4l-9.7-21.5h-0.8l-8.6,21.2l-6.6-14.1c-1-2.3-1.3-3.8-0.9-4.6c0.4-0.8,1.4-1.3,3-1.4l1.2-0.1
		v-0.8c-0.8,0-1.9,0-3.1,0.1c-1.3,0-2.7,0.1-4.3,0.1c-1.6,0-3.3,0-5.1,0h-0.1c-2.3,0-4.4,0-6.2-0.1c-1.9,0-3.3-0.1-4.4-0.1v0.8
		l1.2,0.1c0.8,0.1,1.5,0.3,2.1,0.6c0.6,0.3,1,0.7,1.4,1.2c0.4,0.5,0.8,1.3,1.2,2.2l14.6,31.7h0.8l8.5-21.3l9.5,21.3h0.7l8.9-21
		c1.6-3.6,2.9-6.4,3.9-8.3c1-2,2-3.4,2.9-4.3c0.9-0.9,1.8-1.6,2.8-2l0.8-0.3v-0.8c-1.1,0-2.1,0.1-2.9,0.1
		C1668.3,446.8,1667.3,446.8,1666.2,446.8z"/>
	<path class="st0" d="M1701.7,477c-1.6,1.2-3.7,1.8-6.2,1.8c-3.3,0-5.8-1.4-7.4-4.1c-1.7-2.7-2.5-6.4-2.5-11c0-0.6,0-1.1,0-1.6
		c0-0.3,0-0.6,0-0.9h20.5c0-3.7-0.5-6.6-1.8-8.9c-1.2-2.3-2.9-3.9-5.2-5c-2.2-1-5-1.5-8.1-1.5c-3.4,0-6.6,0.7-9.4,2
		c-2.8,1.3-5,3.4-6.6,6.2c-1.6,2.8-2.4,6.4-2.4,10.7c0,3.9,0.7,7.2,2.1,10c1.4,2.8,3.3,4.9,5.9,6.4c2.6,1.5,5.6,2.2,9.1,2.2
		c4.1,0,7.6-1,10.4-2.9c2.8-1.9,4.9-4.9,6.3-8.7l-0.7-0.3C1704.7,474,1703.4,475.8,1701.7,477z M1691.2,446.5c1.2,0,2.2,0.6,2.9,1.9
		c0.7,1.3,1.2,2.9,1.5,5c0.3,2.1,0.5,4.4,0.4,7h-10.3c0.3-5.1,1-8.7,2-10.8C1688.7,447.5,1689.8,446.5,1691.2,446.5z"/>
	<path class="st0" d="M1743.7,447.9c-2.2-1.5-4.7-2.2-7.8-2.2c-2.5,0-4.6,0.5-6.3,1.6c-1.2,0.7-2.3,1.8-3.1,3.2v-21.1v-0.8
		c-1.7,0.3-3.3,0.6-4.9,0.7c-1.6,0.2-3.3,0.2-5.1,0.2c-1.1,0-2.2,0-3.3,0c-1,0-2.2-0.1-3.6-0.2v0.8l0.8,0.1c1.5,0.2,2.5,0.6,3,1.3
		c0.5,0.7,0.8,2,0.8,3.8v29.2v12.8c0,0.9,0,1.7-0.1,2.4c-0.1,0.7-0.2,1.3-0.3,1.9c-0.2,0.5-0.4,1-0.7,1.5l0.6,0.6
		c0.9-0.7,2.1-1.4,3.6-1.9c1.5-0.5,3-0.9,4.7-1.1c1.6-0.2,3-0.1,4.4,0.3c0.7,0.5,1.6,1,2.7,1.4c1.5,0.6,3.3,0.9,5.4,0.9
		c3.4,0,6.3-0.8,8.7-2.3c2.4-1.5,4.2-3.7,5.5-6.5c1.3-2.8,1.9-6.3,1.9-10.3c0-3.9-0.6-7.2-1.7-9.9
		C1747.5,451.5,1745.9,449.3,1743.7,447.9z M1735.8,477.4c-1.2,2.8-3.1,4.1-5.6,4.1c-0.9,0-1.8-0.2-2.6-0.6
		c-0.4-0.2-0.7-0.4-1.1-0.6v-15.8v-13.1c0.5-0.9,1.1-1.6,1.8-2.1c0.9-0.7,1.9-1,2.9-1c2.2,0,3.8,1.4,4.8,4.1c1,2.7,1.5,6.8,1.5,12.1
		C1737.5,470.4,1736.9,474.6,1735.8,477.4z"/>
</g>
<g>
	<path class="st0" d="M1394.5,515.4c-1.5-1.1-2.6-1.9-3.3-2.5c-0.7-0.6-1-1.3-1-2.2c0-0.8,0.3-1.4,0.9-2c0.6-0.6,1.4-0.9,2.5-0.9
		c1.5,0,2.9,0.8,4.3,2.3v-4.1c-1.2-0.6-2.6-0.9-4.1-0.9c-2.3,0-4.1,0.6-5.4,1.9c-1.3,1.3-1.9,2.8-1.9,4.4c0,1,0.3,2,0.8,3
		c0.6,1,2.1,2.3,4.4,3.9c1.3,0.9,2.2,1.7,2.6,2.3c0.4,0.6,0.6,1.2,0.6,1.8c0,0.9-0.4,1.7-1.1,2.4c-0.7,0.7-1.7,1.1-2.9,1.1
		c-1.8,0-3.3-0.9-4.5-2.7v4.4c1.3,0.7,2.7,1.1,4.2,1.1c2.6,0,4.6-0.7,5.9-2c1.4-1.3,2-2.9,2-4.7c0-1.2-0.3-2.3-1-3.4
		C1397,517.5,1395.9,516.4,1394.5,515.4z"/>
	<path class="st0" d="M1408.3,512c-2.4,0-4.3,0.9-5.7,2.6c-1.4,1.7-2.1,3.7-2.1,6c0,2.4,0.7,4.3,2.2,5.8c1.4,1.5,3.1,2.2,5.1,2.2
		c2.2,0,4-0.9,5.4-2.6c1.4-1.7,2.1-3.8,2.1-6.1c0-2.2-0.7-4.1-2-5.6C1412.1,512.7,1410.4,512,1408.3,512z M1409.4,526.2
		c-0.2,0-0.4,0-0.5,0c-1.4,0-2.6-0.7-3.6-2c-1-1.3-1.5-2.9-1.5-4.7c0-2.5,0.9-4.2,2.7-5.2c0.2,0,0.3,0,0.5,0c1.3,0,2.5,0.6,3.5,1.8
		c1,1.2,1.5,2.7,1.5,4.5C1412.1,523.2,1411.2,525.1,1409.4,526.2z"/>
	<path class="st0" d="M1421.2,511.7c0-2.8,0.2-4.9,0.6-6.3l-4.5,0.9c0.4,1.7,0.6,3.5,0.6,5.4v11.5c0,1.9-0.2,3.6-0.6,5h4.5
		c-0.4-1.1-0.6-2.3-0.6-3.4v-1.1V511.7z"/>
	<path class="st0" d="M1437.4,512.3h-4.5c0.4,1.4,0.6,2.9,0.6,4.3v8.1c-1.2,0.8-2.2,1.2-3.1,1.2c-1,0-1.8-0.3-2.3-1
		c-0.3-0.3-0.4-1.1-0.4-2.4v-6.3c0-1.5,0.2-2.8,0.6-3.9h-4.5c0.4,1.3,0.6,2.8,0.6,4.6v6.1v1.4c0,1.3,0.4,2.3,1.2,3
		c0.8,0.7,1.9,1.1,3.2,1.1c0.9,0,1.6-0.1,2.1-0.4l2.4-2.6v2.7h3.8c-0.4-1.2-0.6-2.9-0.6-5v-6.7
		C1436.8,514.9,1437,513.5,1437.4,512.3z"/>
	<path class="st0" d="M1445.9,519.7c-0.6-0.5-1.2-1.1-2-1.7c-0.7-0.6-1.1-1.3-1.1-2.1c0-0.5,0.2-1,0.6-1.3c0.4-0.4,0.9-0.5,1.5-0.5
		c0.9,0,1.9,0.5,2.9,1.6v-3.1c-1.1-0.4-2-0.6-2.9-0.6c-1.6,0-2.9,0.5-3.9,1.4c-1,0.9-1.5,2-1.5,3.3c0,0.9,0.3,1.8,0.8,2.5
		c0.5,0.7,1.2,1.4,2,2c1,0.8,1.7,1.4,2,1.8c0.4,0.4,0.6,0.9,0.6,1.4c0,0.6-0.2,1.1-0.6,1.5c-0.4,0.4-0.9,0.5-1.5,0.5
		c-1.1,0-2.3-0.8-3.6-2.5v4c1.4,0.4,2.6,0.6,3.6,0.6c1.7,0,3-0.4,4-1.3c1-0.9,1.5-2,1.5-3.3c0-0.8-0.2-1.5-0.6-2.2
		C1447.4,521.2,1446.8,520.5,1445.9,519.7z"/>
	<path class="st0" d="M1452.5,510.6c0.6,0,1.2-0.2,1.5-0.7c0.4-0.5,0.6-1.1,0.6-1.7c0-0.7-0.2-1.3-0.6-1.8c-0.4-0.5-0.9-0.7-1.5-0.7
		c-0.6,0-1.1,0.2-1.5,0.7c-0.4,0.5-0.6,1.1-0.6,1.8c0,0.7,0.2,1.3,0.6,1.8C1451.4,510.4,1451.9,510.6,1452.5,510.6z"/>
	<path class="st0" d="M1454.7,512.3h-4.5c0.4,1.3,0.6,3,0.6,5.2v5.9c0,2-0.2,3.6-0.6,4.8h4.5c-0.4-1.2-0.6-2.8-0.6-4.8v-6.1
		C1454.1,515.3,1454.3,513.6,1454.7,512.3z"/>
	<path class="st0" d="M1471.3,525.7v-14.2c0-2.5,0.3-4.6,0.8-6.2h-5c0.5,1.8,0.8,3.9,0.8,6.2v9.8c0,3.3-0.3,5.6-0.8,6.9h11.5
		l1.9-4.5c-1.5,0.6-2.9,1.1-4.2,1.4C1474.9,525.4,1473.3,525.6,1471.3,525.7z"/>
	<path class="st0" d="M1489.4,512c-2.4,0-4.3,0.9-5.7,2.6c-1.4,1.7-2.1,3.7-2.1,6c0,2.4,0.7,4.3,2.2,5.8c1.4,1.5,3.1,2.2,5.1,2.2
		c2.2,0,4-0.9,5.4-2.6c1.4-1.7,2.1-3.8,2.1-6.1c0-2.2-0.7-4.1-2-5.6C1493.1,512.7,1491.4,512,1489.4,512z M1490.4,526.2
		c-0.2,0-0.4,0-0.5,0c-1.4,0-2.6-0.7-3.6-2c-1-1.3-1.5-2.9-1.5-4.7c0-2.5,0.9-4.2,2.7-5.2c0.2,0,0.3,0,0.5,0c1.3,0,2.5,0.6,3.5,1.8
		c1,1.2,1.5,2.7,1.5,4.5C1493.1,523.2,1492.2,525.1,1490.4,526.2z"/>
	<path class="st0" d="M1507,512.9c-1-0.6-2-1-3.1-1c-1.7,0-3.1,0.6-4.1,1.7c-1,1.2-1.5,2.5-1.5,3.9c0,2.1,1,3.7,3.1,4.8
		c-0.9,0.7-1.7,1.2-2.3,1.7c-0.6,0.5-1,0.9-1,1.4c0,0.5,0.2,0.9,0.6,1.2c0.4,0.3,1.2,0.5,2.4,0.7l-2.6,2.3c-0.3,0.3-0.4,0.6-0.4,1.1
		c0,0.8,0.5,1.4,1.4,1.8c0.9,0.4,2.2,0.6,3.9,0.6c2.6,0,4.4-0.5,5.5-1.6c1.1-1.1,1.7-2.2,1.7-3.4c0-0.9-0.3-1.7-0.8-2.4
		c-0.6-0.7-1.6-1-3.2-1c-0.3,0-0.8,0-1.3,0c-0.5,0-0.9,0-1.3,0c-1.6,0-2.4-0.3-2.4-1c0-0.4,0.3-0.8,1-1.2c0.4,0.1,0.7,0.2,1.2,0.2
		c1.6,0,2.9-0.5,4-1.6c1.1-1.1,1.6-2.3,1.6-3.7c0-0.8-0.2-1.6-0.6-2.5h2.6l0.4-2.5c-1,0.2-2,0.3-3.3,0.3H1507z M1502.3,527.5h2.7
		c1.1,0,1.8,0.1,2.2,0.4c0.3,0.3,0.5,0.6,0.5,1.1c0,0.6-0.3,1.1-0.9,1.4c-0.6,0.3-1.4,0.4-2.3,0.4c-1.1,0-1.8-0.1-2.4-0.4
		c-0.5-0.3-0.8-0.7-0.8-1.2C1501.3,528.7,1501.6,528.1,1502.3,527.5z M1505.8,519.9c-0.5,0.5-1.1,0.7-1.7,0.7c-0.8,0-1.5-0.4-2-1.1
		c-0.6-0.7-0.8-1.6-0.8-2.5c0-0.9,0.3-1.5,0.8-2c0.5-0.5,1.1-0.7,1.7-0.7c0.9,0,1.5,0.4,2.1,1.1c0.5,0.7,0.8,1.5,0.8,2.4
		S1506.3,519.5,1505.8,519.9z"/>
	<path class="st0" d="M1514.7,510.6c0.6,0,1.2-0.2,1.5-0.7c0.4-0.5,0.6-1.1,0.6-1.7c0-0.7-0.2-1.3-0.6-1.8c-0.4-0.5-0.9-0.7-1.5-0.7
		s-1.1,0.2-1.5,0.7c-0.4,0.5-0.6,1.1-0.6,1.8c0,0.7,0.2,1.3,0.6,1.8C1513.6,510.4,1514.1,510.6,1514.7,510.6z"/>
	<path class="st0" d="M1516.9,512.3h-4.5c0.4,1.3,0.6,3,0.6,5.2v5.9c0,2-0.2,3.6-0.6,4.8h4.5c-0.4-1.2-0.6-2.8-0.6-4.8v-6.1
		C1516.3,515.3,1516.5,513.6,1516.9,512.3z"/>
	<path class="st0" d="M1525.3,519.7c-0.6-0.5-1.2-1.1-2-1.7c-0.7-0.6-1.1-1.3-1.1-2.1c0-0.5,0.2-1,0.6-1.3c0.4-0.4,0.9-0.5,1.5-0.5
		c0.9,0,1.9,0.5,2.9,1.6v-3.1c-1.1-0.4-2-0.6-2.9-0.6c-1.6,0-2.9,0.5-3.9,1.4c-1,0.9-1.5,2-1.5,3.3c0,0.9,0.3,1.8,0.8,2.5
		c0.5,0.7,1.2,1.4,2,2c1,0.8,1.7,1.4,2,1.8c0.4,0.4,0.6,0.9,0.6,1.4c0,0.6-0.2,1.1-0.6,1.5c-0.4,0.4-0.9,0.5-1.5,0.5
		c-1.1,0-2.3-0.8-3.6-2.5v4c1.4,0.4,2.6,0.6,3.6,0.6c1.7,0,3-0.4,4-1.3c1-0.9,1.5-2,1.5-3.3c0-0.8-0.2-1.5-0.6-2.2
		C1526.8,521.2,1526.2,520.5,1525.3,519.7z"/>
	<path class="st0" d="M1531.1,525.8c0,2.5-0.8,5.2-2.5,8.2h2.1c2.9-3.7,4.4-7.1,4.7-10.2h-4.5C1531,524.6,1531.1,525.3,1531.1,525.8
		z"/>
	<path class="st0" d="M1553.3,525.7v-8c0.8,0,1.6,0.1,2.4,0.2c0.8,0.1,1.8,0.4,2.9,0.9l2.1-3.5h-7.5v-7.3c0.3,0,0.7,0,1.1,0
		c1.1,0,2.1,0.1,3,0.4c0.9,0.3,1.7,0.6,2.4,1l1.8-3.9H1549c0.5,2.3,0.8,4.7,0.8,7.2v7.7c0,3.7-0.3,6.3-0.8,7.9h12l1.9-4.3
		c-1,0.5-2.1,0.9-3.3,1.2C1558.5,525.3,1556.3,525.5,1553.3,525.7z"/>
	<path class="st0" d="M1571.3,519.6c2.1-3.1,3.4-4.9,3.9-5.4c0.5-0.5,1.2-1.1,2.2-1.9h-5.3c0,0.6-0.1,1.1-0.2,1.4
		c-0.1,0.4-0.4,0.8-0.7,1.3l-3.1,4.7v-9.6c0-1.8,0.2-3.4,0.6-4.8l-4.5,0.9c0.3,0.7,0.4,1.2,0.5,1.7s0.1,1.5,0.1,3.1v12.4
		c0,1.1,0,1.9,0,2.5c0,0.6-0.2,1.3-0.6,2.3h4.5c-0.4-1-0.6-2.4-0.6-3.9v-4.4l4.2,6.6c0.3,0.5,0.5,0.8,0.6,1c0.1,0.2,0.1,0.4,0.1,0.7
		h4.7c-1.1-1.1-2.3-2.5-3.5-4.3L1571.3,519.6z"/>
	<path class="st0" d="M1584.2,519.7c-0.6-0.5-1.2-1.1-2-1.7c-0.7-0.6-1.1-1.3-1.1-2.1c0-0.5,0.2-1,0.6-1.3c0.4-0.4,0.9-0.5,1.5-0.5
		c0.9,0,1.9,0.5,2.9,1.6v-3.1c-1.1-0.4-2-0.6-2.9-0.6c-1.6,0-2.9,0.5-3.9,1.4c-1,0.9-1.5,2-1.5,3.3c0,0.9,0.3,1.8,0.8,2.5
		c0.5,0.7,1.2,1.4,2,2c1,0.8,1.7,1.4,2,1.8c0.4,0.4,0.6,0.9,0.6,1.4c0,0.6-0.2,1.1-0.6,1.5c-0.4,0.4-0.9,0.5-1.5,0.5
		c-1.1,0-2.3-0.8-3.6-2.5v4c1.4,0.4,2.6,0.6,3.6,0.6c1.7,0,3-0.4,4-1.3c1-0.9,1.5-2,1.5-3.3c0-0.8-0.2-1.5-0.6-2.2
		C1585.7,521.2,1585.1,520.5,1584.2,519.7z"/>
	<path class="st0" d="M1594.8,512c-1.9,0-3.5,0.8-4.7,2.3c-1.2,1.6-1.9,3.6-1.9,6.1c0,2.6,0.7,4.6,2.1,6c1.4,1.4,3.2,2.1,5.4,2.1
		c1,0,2-0.2,3-0.5l1.2-3c-1.4,0.6-2.6,1-3.6,1c-1.4,0-2.5-0.5-3.4-1.4c-0.8-1-1.4-2.3-1.5-3.9h8.9c0-0.4,0-0.8,0-1.4
		c0-2.5-0.5-4.3-1.6-5.5C1597.7,512.6,1596.4,512,1594.8,512z M1591.6,518.6c0-1.2,0.3-2.2,0.9-3c0.6-0.8,1.3-1.2,2.3-1.2
		c0.9,0,1.6,0.4,2.2,1.1c0.6,0.7,0.8,1.8,0.8,3.1H1591.6z"/>
	<path class="st0" d="M1609.8,519.6c2.1-3.1,3.4-4.9,3.9-5.4c0.5-0.5,1.2-1.1,2.2-1.9h-5.3c0,0.6-0.1,1.1-0.2,1.4
		c-0.1,0.4-0.4,0.8-0.7,1.3l-3.1,4.7v-9.6c0-1.8,0.2-3.4,0.6-4.8l-4.5,0.9c0.3,0.7,0.4,1.2,0.5,1.7s0.1,1.5,0.1,3.1v12.4
		c0,1.1,0,1.9,0,2.5c0,0.6-0.2,1.3-0.6,2.3h4.5c-0.4-1-0.6-2.4-0.6-3.9v-4.4l4.2,6.6c0.3,0.5,0.5,0.8,0.6,1c0.1,0.2,0.1,0.4,0.1,0.7
		h4.7c-1.1-1.1-2.3-2.5-3.5-4.3L1609.8,519.6z"/>
	<path class="st0" d="M1630,512.3h-4.5c0.4,1.4,0.6,2.9,0.6,4.3v8.1c-1.2,0.8-2.2,1.2-3.1,1.2c-1,0-1.8-0.3-2.3-1
		c-0.3-0.3-0.4-1.1-0.4-2.4v-6.3c0-1.5,0.2-2.8,0.6-3.9h-4.5c0.4,1.3,0.6,2.8,0.6,4.6v6.1v1.4c0,1.3,0.4,2.3,1.2,3
		c0.8,0.7,1.9,1.1,3.2,1.1c0.9,0,1.6-0.1,2.1-0.4l2.4-2.6v2.7h3.8c-0.4-1.2-0.6-2.9-0.6-5v-6.7
		C1629.3,514.9,1629.5,513.5,1630,512.3z"/>
	<path class="st0" d="M1638.4,519.7c-0.6-0.5-1.2-1.1-2-1.7c-0.7-0.6-1.1-1.3-1.1-2.1c0-0.5,0.2-1,0.6-1.3c0.4-0.4,0.9-0.5,1.5-0.5
		c0.9,0,1.9,0.5,2.9,1.6v-3.1c-1.1-0.4-2-0.6-2.9-0.6c-1.6,0-2.9,0.5-3.9,1.4c-1,0.9-1.5,2-1.5,3.3c0,0.9,0.3,1.8,0.8,2.5
		c0.5,0.7,1.2,1.4,2,2c1,0.8,1.7,1.4,2,1.8c0.4,0.4,0.6,0.9,0.6,1.4c0,0.6-0.2,1.1-0.6,1.5c-0.4,0.4-0.9,0.5-1.5,0.5
		c-1.1,0-2.3-0.8-3.6-2.5v4c1.4,0.4,2.6,0.6,3.6,0.6c1.7,0,3-0.4,4-1.3c1-0.9,1.5-2,1.5-3.3c0-0.8-0.2-1.5-0.6-2.2
		C1639.9,521.2,1639.3,520.5,1638.4,519.7z"/>
	<path class="st0" d="M1647.3,512.3h-4.5c0.4,1.3,0.6,3,0.6,5.2v5.9c0,2-0.2,3.6-0.6,4.8h4.5c-0.4-1.2-0.6-2.8-0.6-4.8v-6.1
		C1646.6,515.3,1646.8,513.6,1647.3,512.3z"/>
	<path class="st0" d="M1645,510.6c0.6,0,1.2-0.2,1.5-0.7c0.4-0.5,0.6-1.1,0.6-1.7c0-0.7-0.2-1.3-0.6-1.8c-0.4-0.5-0.9-0.7-1.5-0.7
		s-1.1,0.2-1.5,0.7c-0.4,0.5-0.6,1.1-0.6,1.8c0,0.7,0.2,1.3,0.6,1.8C1643.9,510.4,1644.4,510.6,1645,510.6z"/>
</g>
</svg>
