<?xml version="1.0" encoding="utf-8"?>
<svg version="1.1" id="Layer_1" xmlns="http://www.w3.org/2000/svg" xmlns:xlink="http://www.w3.org/1999/xlink" x="0px" y="0px"
	 viewBox="1280 390 90 165" style="enable-background:new 1280 390 90 165;" xml:space="preserve">
<path fill="#F97316" d="M1367.1,411.5v117.3c0,2.7-1.8,5.1-4.3,5.9l-56.8,23V551c0-2.1,1.4-4,3.4-4.7l47.9-20.3l-6.2-2.6 c-2.2-0.9-3.6-3.1-3.6-5.5V396.7l14.9,7.3C1365.3,405.4,1367.1,408.3,1367.1,411.5z"/>
<path fill="#F97316" d="M1282.8,542.9V425.6c0-2.7,1.8-5.1,4.3-5.9l56.8-23v6.6c0,2.1-1.4,4-3.4,4.7l-47.9,20.3l6.2,2.6 c2.2,0.9,3.6,3.1,3.6,5.5v121.3l-14.9-7.3C1284.6,549,1282.8,546.1,1282.8,542.9z"/>
</svg>
